<mxfile host="Electron" modified="2024-04-04T08:37:32.314Z" agent="Mozilla/5.0 (X11; Linux x86_64) AppleWebKit/537.36 (KHTML, like Gecko) draw.io/24.1.0 Chrome/120.0.6099.109 Electron/28.1.0 Safari/537.36" etag="TdL-6lwTI6MAlbMB6TFY" version="24.1.0" type="device" pages="2">
  <diagram name="Structual Diagram" id="TRSke4jGwEFZ74IsYrMw">
    <mxGraphModel dx="1434" dy="843" grid="1" gridSize="10" guides="1" tooltips="1" connect="1" arrows="1" fold="1" page="1" pageScale="1" pageWidth="827" pageHeight="1169" math="0" shadow="0">
      <root>
        <mxCell id="0" />
        <mxCell id="1" parent="0" />
        <mxCell id="3TsEPh2uta-ocImclWXM-1" value="" style="fontStyle=1;align=center;verticalAlign=top;childLayout=stackLayout;horizontal=1;horizontalStack=0;resizeParent=1;resizeParentMax=0;resizeLast=0;marginBottom=0;" parent="1" vertex="1">
          <mxGeometry x="280" y="300" width="120" height="163" as="geometry" />
        </mxCell>
        <mxCell id="3TsEPh2uta-ocImclWXM-2" value="&lt;b&gt;Planning&lt;/b&gt;" style="html=1;align=left;spacingLeft=4;verticalAlign=top;strokeColor=none;fillColor=none;whiteSpace=wrap;" parent="3TsEPh2uta-ocImclWXM-1" vertex="1">
          <mxGeometry width="120" height="40" as="geometry" />
        </mxCell>
        <mxCell id="3TsEPh2uta-ocImclWXM-3" value="" style="shape=module;jettyWidth=10;jettyHeight=4;" parent="3TsEPh2uta-ocImclWXM-2" vertex="1">
          <mxGeometry x="1" width="16" height="20" relative="1" as="geometry">
            <mxPoint x="-25" y="9" as="offset" />
          </mxGeometry>
        </mxCell>
        <mxCell id="3TsEPh2uta-ocImclWXM-4" value="" style="line;strokeWidth=1;fillColor=none;align=left;verticalAlign=middle;spacingTop=-1;spacingLeft=3;spacingRight=3;rotatable=0;labelPosition=right;points=[];portConstraint=eastwest;" parent="3TsEPh2uta-ocImclWXM-1" vertex="1">
          <mxGeometry y="40" width="120" height="8" as="geometry" />
        </mxCell>
        <mxCell id="3TsEPh2uta-ocImclWXM-5" value="&lt;u&gt;provided interfaces&lt;/u&gt;" style="html=1;align=center;spacingLeft=4;verticalAlign=top;strokeColor=none;fillColor=none;whiteSpace=wrap;" parent="3TsEPh2uta-ocImclWXM-1" vertex="1">
          <mxGeometry y="48" width="120" height="25" as="geometry" />
        </mxCell>
        <mxCell id="3TsEPh2uta-ocImclWXM-6" value="Path" style="html=1;align=left;spacingLeft=4;verticalAlign=top;strokeColor=none;fillColor=none;whiteSpace=wrap;" parent="3TsEPh2uta-ocImclWXM-1" vertex="1">
          <mxGeometry y="73" width="120" height="27" as="geometry" />
        </mxCell>
        <mxCell id="3TsEPh2uta-ocImclWXM-7" value="" style="line;strokeWidth=1;fillColor=none;align=left;verticalAlign=middle;spacingTop=-1;spacingLeft=3;spacingRight=3;rotatable=0;labelPosition=right;points=[];portConstraint=eastwest;" parent="3TsEPh2uta-ocImclWXM-1" vertex="1">
          <mxGeometry y="100" width="120" height="8" as="geometry" />
        </mxCell>
        <mxCell id="3TsEPh2uta-ocImclWXM-8" value="&lt;u&gt;required interfaces&lt;/u&gt;" style="html=1;align=center;spacingLeft=4;verticalAlign=top;strokeColor=none;fillColor=none;whiteSpace=wrap;" parent="3TsEPh2uta-ocImclWXM-1" vertex="1">
          <mxGeometry y="108" width="120" height="25" as="geometry" />
        </mxCell>
        <mxCell id="3TsEPh2uta-ocImclWXM-9" value="Cone map" style="html=1;align=left;spacingLeft=4;verticalAlign=top;strokeColor=none;fillColor=none;whiteSpace=wrap;" parent="3TsEPh2uta-ocImclWXM-1" vertex="1">
          <mxGeometry y="133" width="120" height="30" as="geometry" />
        </mxCell>
        <mxCell id="3TsEPh2uta-ocImclWXM-10" value="" style="fontStyle=1;align=center;verticalAlign=top;childLayout=stackLayout;horizontal=1;horizontalStack=0;resizeParent=1;resizeParentMax=0;resizeLast=0;marginBottom=0;" parent="1" vertex="1">
          <mxGeometry x="150" y="560" width="130" height="212" as="geometry" />
        </mxCell>
        <mxCell id="3TsEPh2uta-ocImclWXM-11" value="&lt;b&gt;Longitudinal Controller&lt;br&gt;&lt;/b&gt;" style="html=1;align=left;spacingLeft=4;verticalAlign=top;strokeColor=none;fillColor=none;whiteSpace=wrap;" parent="3TsEPh2uta-ocImclWXM-10" vertex="1">
          <mxGeometry width="130" height="40" as="geometry" />
        </mxCell>
        <mxCell id="3TsEPh2uta-ocImclWXM-12" value="" style="shape=module;jettyWidth=10;jettyHeight=4;" parent="3TsEPh2uta-ocImclWXM-11" vertex="1">
          <mxGeometry x="1" width="16" height="20" relative="1" as="geometry">
            <mxPoint x="-25" y="9" as="offset" />
          </mxGeometry>
        </mxCell>
        <mxCell id="3TsEPh2uta-ocImclWXM-13" value="" style="line;strokeWidth=1;fillColor=none;align=left;verticalAlign=middle;spacingTop=-1;spacingLeft=3;spacingRight=3;rotatable=0;labelPosition=right;points=[];portConstraint=eastwest;" parent="3TsEPh2uta-ocImclWXM-10" vertex="1">
          <mxGeometry y="40" width="130" height="8" as="geometry" />
        </mxCell>
        <mxCell id="3TsEPh2uta-ocImclWXM-14" value="&lt;u&gt;provided interfaces&lt;/u&gt;" style="html=1;align=center;spacingLeft=4;verticalAlign=top;strokeColor=none;fillColor=none;whiteSpace=wrap;" parent="3TsEPh2uta-ocImclWXM-10" vertex="1">
          <mxGeometry y="48" width="130" height="25" as="geometry" />
        </mxCell>
        <mxCell id="3TsEPh2uta-ocImclWXM-15" value="EBS Status ON/OFF" style="html=1;align=left;spacingLeft=4;verticalAlign=top;strokeColor=none;fillColor=none;whiteSpace=wrap;spacingRight=4;fontFamily=Helvetica;fontSize=12;fontColor=default;" parent="3TsEPh2uta-ocImclWXM-10" vertex="1">
          <mxGeometry y="73" width="130" height="25" as="geometry" />
        </mxCell>
        <mxCell id="3TsEPh2uta-ocImclWXM-16" value="Torque command" style="html=1;align=left;spacingLeft=4;verticalAlign=top;strokeColor=none;fillColor=none;whiteSpace=wrap;" parent="3TsEPh2uta-ocImclWXM-10" vertex="1">
          <mxGeometry y="98" width="130" height="27" as="geometry" />
        </mxCell>
        <mxCell id="3TsEPh2uta-ocImclWXM-17" value="" style="line;strokeWidth=1;fillColor=none;align=left;verticalAlign=middle;spacingTop=-1;spacingLeft=3;spacingRight=3;rotatable=0;labelPosition=right;points=[];portConstraint=eastwest;" parent="3TsEPh2uta-ocImclWXM-10" vertex="1">
          <mxGeometry y="125" width="130" height="8" as="geometry" />
        </mxCell>
        <mxCell id="3TsEPh2uta-ocImclWXM-18" value="&lt;u&gt;required interfaces&lt;/u&gt;" style="html=1;align=center;spacingLeft=4;verticalAlign=top;strokeColor=none;fillColor=none;whiteSpace=wrap;" parent="3TsEPh2uta-ocImclWXM-10" vertex="1">
          <mxGeometry y="133" width="130" height="25" as="geometry" />
        </mxCell>
        <mxCell id="3TsEPh2uta-ocImclWXM-19" value="Velocity &amp;amp; Pose" style="html=1;align=left;spacingLeft=4;verticalAlign=top;strokeColor=none;fillColor=none;whiteSpace=wrap;" parent="3TsEPh2uta-ocImclWXM-10" vertex="1">
          <mxGeometry y="158" width="130" height="27" as="geometry" />
        </mxCell>
        <mxCell id="3TsEPh2uta-ocImclWXM-20" value="Path" style="html=1;align=left;spacingLeft=4;verticalAlign=top;strokeColor=none;fillColor=none;whiteSpace=wrap;" parent="3TsEPh2uta-ocImclWXM-10" vertex="1">
          <mxGeometry y="185" width="130" height="27" as="geometry" />
        </mxCell>
        <mxCell id="3TsEPh2uta-ocImclWXM-21" value="" style="fontStyle=1;align=center;verticalAlign=top;childLayout=stackLayout;horizontal=1;horizontalStack=0;resizeParent=1;resizeParentMax=0;resizeLast=0;marginBottom=0;" parent="1" vertex="1">
          <mxGeometry x="405" y="560" width="140" height="212" as="geometry" />
        </mxCell>
        <mxCell id="3TsEPh2uta-ocImclWXM-22" value="&lt;b&gt;Lateral Controller&lt;/b&gt;" style="html=1;align=left;spacingLeft=4;verticalAlign=top;strokeColor=none;fillColor=none;whiteSpace=wrap;" parent="3TsEPh2uta-ocImclWXM-21" vertex="1">
          <mxGeometry width="140" height="40" as="geometry" />
        </mxCell>
        <mxCell id="3TsEPh2uta-ocImclWXM-23" value="" style="shape=module;jettyWidth=10;jettyHeight=4;" parent="3TsEPh2uta-ocImclWXM-22" vertex="1">
          <mxGeometry x="1" width="16" height="20" relative="1" as="geometry">
            <mxPoint x="-25" y="9" as="offset" />
          </mxGeometry>
        </mxCell>
        <mxCell id="3TsEPh2uta-ocImclWXM-24" value="" style="line;strokeWidth=1;fillColor=none;align=left;verticalAlign=middle;spacingTop=-1;spacingLeft=3;spacingRight=3;rotatable=0;labelPosition=right;points=[];portConstraint=eastwest;" parent="3TsEPh2uta-ocImclWXM-21" vertex="1">
          <mxGeometry y="40" width="140" height="8" as="geometry" />
        </mxCell>
        <mxCell id="3TsEPh2uta-ocImclWXM-25" value="&lt;u&gt;provided interfaces&lt;/u&gt;" style="html=1;align=center;spacingLeft=4;verticalAlign=top;strokeColor=none;fillColor=none;whiteSpace=wrap;" parent="3TsEPh2uta-ocImclWXM-21" vertex="1">
          <mxGeometry y="48" width="140" height="25" as="geometry" />
        </mxCell>
        <mxCell id="3TsEPh2uta-ocImclWXM-26" value="EBS Status ON/OFF" style="html=1;align=left;spacingLeft=4;verticalAlign=top;strokeColor=none;fillColor=none;whiteSpace=wrap;spacingRight=4;fontFamily=Helvetica;fontSize=12;fontColor=default;" parent="3TsEPh2uta-ocImclWXM-21" vertex="1">
          <mxGeometry y="73" width="140" height="25" as="geometry" />
        </mxCell>
        <mxCell id="3TsEPh2uta-ocImclWXM-27" value="Steering Command" style="html=1;align=left;spacingLeft=4;verticalAlign=top;strokeColor=none;fillColor=none;whiteSpace=wrap;" parent="3TsEPh2uta-ocImclWXM-21" vertex="1">
          <mxGeometry y="98" width="140" height="27" as="geometry" />
        </mxCell>
        <mxCell id="3TsEPh2uta-ocImclWXM-28" value="" style="line;strokeWidth=1;fillColor=none;align=left;verticalAlign=middle;spacingTop=-1;spacingLeft=3;spacingRight=3;rotatable=0;labelPosition=right;points=[];portConstraint=eastwest;" parent="3TsEPh2uta-ocImclWXM-21" vertex="1">
          <mxGeometry y="125" width="140" height="8" as="geometry" />
        </mxCell>
        <mxCell id="3TsEPh2uta-ocImclWXM-29" value="&lt;u&gt;required interfaces&lt;/u&gt;" style="html=1;align=center;spacingLeft=4;verticalAlign=top;strokeColor=none;fillColor=none;whiteSpace=wrap;" parent="3TsEPh2uta-ocImclWXM-21" vertex="1">
          <mxGeometry y="133" width="140" height="25" as="geometry" />
        </mxCell>
        <mxCell id="3TsEPh2uta-ocImclWXM-30" value="Velocity &amp;amp; Pose" style="html=1;align=left;spacingLeft=4;verticalAlign=top;strokeColor=none;fillColor=none;whiteSpace=wrap;" parent="3TsEPh2uta-ocImclWXM-21" vertex="1">
          <mxGeometry y="158" width="140" height="27" as="geometry" />
        </mxCell>
        <mxCell id="3TsEPh2uta-ocImclWXM-31" value="Path" style="html=1;align=left;spacingLeft=4;verticalAlign=top;strokeColor=none;fillColor=none;whiteSpace=wrap;" parent="3TsEPh2uta-ocImclWXM-21" vertex="1">
          <mxGeometry y="185" width="140" height="27" as="geometry" />
        </mxCell>
        <mxCell id="3TsEPh2uta-ocImclWXM-32" value="" style="rounded=0;orthogonalLoop=1;jettySize=auto;html=1;endArrow=halfCircle;endFill=0;endSize=6;strokeWidth=1;sketch=0;exitX=0.5;exitY=0;exitDx=0;exitDy=0;" parent="1" source="3TsEPh2uta-ocImclWXM-11" edge="1">
          <mxGeometry relative="1" as="geometry">
            <mxPoint x="480" y="790" as="sourcePoint" />
            <mxPoint x="340" y="500" as="targetPoint" />
            <Array as="points">
              <mxPoint x="215" y="500" />
            </Array>
          </mxGeometry>
        </mxCell>
        <mxCell id="3TsEPh2uta-ocImclWXM-33" value="" style="rounded=0;orthogonalLoop=1;jettySize=auto;html=1;endArrow=oval;endFill=0;sketch=0;sourcePerimeterSpacing=0;targetPerimeterSpacing=0;endSize=10;exitX=0.5;exitY=1;exitDx=0;exitDy=0;" parent="1" source="3TsEPh2uta-ocImclWXM-9" edge="1">
          <mxGeometry relative="1" as="geometry">
            <mxPoint x="545" y="760" as="sourcePoint" />
            <mxPoint x="340" y="500" as="targetPoint" />
          </mxGeometry>
        </mxCell>
        <mxCell id="3TsEPh2uta-ocImclWXM-34" value="" style="rounded=0;orthogonalLoop=1;jettySize=auto;html=1;endArrow=halfCircle;endFill=0;endSize=6;strokeWidth=1;sketch=0;exitX=0.5;exitY=0;exitDx=0;exitDy=0;" parent="1" source="3TsEPh2uta-ocImclWXM-22" edge="1">
          <mxGeometry relative="1" as="geometry">
            <mxPoint x="520" y="769" as="sourcePoint" />
            <mxPoint x="340" y="500" as="targetPoint" />
            <Array as="points">
              <mxPoint x="475" y="500" />
            </Array>
          </mxGeometry>
        </mxCell>
      </root>
    </mxGraphModel>
  </diagram>
  <diagram id="bCUH3m_FsP_XY-dwNAW8" name="Planning Flow Graph">
    <mxGraphModel dx="1434" dy="843" grid="1" gridSize="10" guides="1" tooltips="1" connect="1" arrows="1" fold="1" page="1" pageScale="1" pageWidth="827" pageHeight="1169" math="0" shadow="0">
      <root>
        <mxCell id="0" />
        <mxCell id="1" parent="0" />
        <mxCell id="TJBgiQfu2_P00LeddW0R-5" value="" style="endArrow=classic;html=1;rounded=0;" parent="1" edge="1">
          <mxGeometry width="50" height="50" relative="1" as="geometry">
            <mxPoint x="399.5" y="140" as="sourcePoint" />
            <mxPoint x="399.5" y="220" as="targetPoint" />
          </mxGeometry>
        </mxCell>
        <mxCell id="TJBgiQfu2_P00LeddW0R-7" value="&lt;font style=&quot;font-size: 14px;&quot;&gt;Remove outliers using splines&lt;/font&gt;" style="rounded=1;whiteSpace=wrap;html=1;" parent="1" vertex="1">
          <mxGeometry x="340" y="220" width="120" height="60" as="geometry" />
        </mxCell>
        <mxCell id="TJBgiQfu2_P00LeddW0R-8" value="&lt;div style=&quot;font-size: 14px;&quot;&gt;&lt;font style=&quot;font-size: 14px;&quot;&gt;Delaunay&lt;/font&gt;&lt;/div&gt;&lt;div style=&quot;font-size: 14px;&quot;&gt;&lt;font style=&quot;font-size: 14px;&quot;&gt;triangulations&lt;/font&gt;&lt;/div&gt;" style="rounded=1;whiteSpace=wrap;html=1;" parent="1" vertex="1">
          <mxGeometry x="340" y="310" width="120" height="60" as="geometry" />
        </mxCell>
        <mxCell id="TJBgiQfu2_P00LeddW0R-9" value="" style="endArrow=classic;html=1;rounded=0;" parent="1" edge="1">
          <mxGeometry width="50" height="50" relative="1" as="geometry">
            <mxPoint x="399.5" y="280" as="sourcePoint" />
            <mxPoint x="400" y="310" as="targetPoint" />
          </mxGeometry>
        </mxCell>
        <mxCell id="TJBgiQfu2_P00LeddW0R-10" value="&lt;font style=&quot;font-size: 14px;&quot;&gt;Add points and smooth the path&lt;/font&gt;" style="rounded=1;whiteSpace=wrap;html=1;" parent="1" vertex="1">
          <mxGeometry x="340" y="400" width="120" height="60" as="geometry" />
        </mxCell>
        <mxCell id="TJBgiQfu2_P00LeddW0R-11" value="" style="endArrow=classic;html=1;rounded=0;exitX=0.5;exitY=1;exitDx=0;exitDy=0;entryX=0.5;entryY=0;entryDx=0;entryDy=0;" parent="1" source="TJBgiQfu2_P00LeddW0R-8" target="TJBgiQfu2_P00LeddW0R-10" edge="1">
          <mxGeometry width="50" height="50" relative="1" as="geometry">
            <mxPoint x="620" y="380" as="sourcePoint" />
            <mxPoint x="620" y="410" as="targetPoint" />
          </mxGeometry>
        </mxCell>
        <mxCell id="TJBgiQfu2_P00LeddW0R-12" value="&lt;font style=&quot;font-size: 14px;&quot;&gt;Associate each point with an ideal velocity&lt;/font&gt;" style="rounded=1;whiteSpace=wrap;html=1;" parent="1" vertex="1">
          <mxGeometry x="340" y="490" width="120" height="60" as="geometry" />
        </mxCell>
        <mxCell id="TJBgiQfu2_P00LeddW0R-13" value="" style="endArrow=classic;html=1;rounded=0;entryX=0.5;entryY=0;entryDx=0;entryDy=0;exitX=0.5;exitY=1;exitDx=0;exitDy=0;" parent="1" source="TJBgiQfu2_P00LeddW0R-10" target="TJBgiQfu2_P00LeddW0R-12" edge="1">
          <mxGeometry width="50" height="50" relative="1" as="geometry">
            <mxPoint x="390" y="450" as="sourcePoint" />
            <mxPoint x="440" y="400" as="targetPoint" />
          </mxGeometry>
        </mxCell>
        <mxCell id="MB00HKKeMMpwAKuhaFDO-1" value="" style="ellipse;html=1;shape=endState;fillColor=#000000;strokeColor=#ff0000;" parent="1" vertex="1">
          <mxGeometry x="385" y="670" width="30" height="30" as="geometry" />
        </mxCell>
        <mxCell id="xTE05M7Gu4GzCs6WGKuI-1" value="&lt;font style=&quot;font-size: 14px;&quot;&gt;Get array of cones&lt;/font&gt;" style="rounded=1;whiteSpace=wrap;html=1;" parent="1" vertex="1">
          <mxGeometry x="340" y="130" width="120" height="60" as="geometry" />
        </mxCell>
        <mxCell id="ejoEvc9cQs47C9cUx_Rx-1" value="" style="ellipse;whiteSpace=wrap;html=1;aspect=fixed;fillColor=#000000;" parent="1" vertex="1">
          <mxGeometry x="390" y="80" width="20" height="20" as="geometry" />
        </mxCell>
        <mxCell id="ejoEvc9cQs47C9cUx_Rx-2" value="" style="endArrow=classic;html=1;rounded=0;entryX=0.5;entryY=0;entryDx=0;entryDy=0;" parent="1" target="xTE05M7Gu4GzCs6WGKuI-1" edge="1">
          <mxGeometry width="50" height="50" relative="1" as="geometry">
            <mxPoint x="400" y="100" as="sourcePoint" />
            <mxPoint x="450" y="50" as="targetPoint" />
          </mxGeometry>
        </mxCell>
        <mxCell id="ejoEvc9cQs47C9cUx_Rx-4" value="&lt;font style=&quot;font-size: 14px;&quot;&gt;Publish array of cones in the path&lt;/font&gt;" style="rounded=1;whiteSpace=wrap;html=1;" parent="1" vertex="1">
          <mxGeometry x="339" y="580" width="120" height="60" as="geometry" />
        </mxCell>
        <mxCell id="ejoEvc9cQs47C9cUx_Rx-5" value="" style="endArrow=classic;html=1;rounded=0;" parent="1" edge="1">
          <mxGeometry width="50" height="50" relative="1" as="geometry">
            <mxPoint x="400" y="550" as="sourcePoint" />
            <mxPoint x="400" y="580" as="targetPoint" />
          </mxGeometry>
        </mxCell>
        <mxCell id="ejoEvc9cQs47C9cUx_Rx-6" value="" style="endArrow=classic;html=1;rounded=0;entryX=0.5;entryY=0;entryDx=0;entryDy=0;" parent="1" target="MB00HKKeMMpwAKuhaFDO-1" edge="1">
          <mxGeometry width="50" height="50" relative="1" as="geometry">
            <mxPoint x="400" y="640" as="sourcePoint" />
            <mxPoint x="450" y="590" as="targetPoint" />
          </mxGeometry>
        </mxCell>
      </root>
    </mxGraphModel>
  </diagram>
</mxfile>
